<mxfile host="app.diagrams.net" agent="Mozilla/5.0 (Macintosh; Intel Mac OS X 10_15_7) AppleWebKit/537.36 (KHTML, like Gecko) Chrome/127.0.0.0 Safari/537.36 Edg/127.0.0.0" version="24.7.10">
  <diagram name="Page-1" id="pzSem4gXVR3ifgypQG5X">
    <mxGraphModel dx="971" dy="656" grid="1" gridSize="10" guides="1" tooltips="1" connect="1" arrows="1" fold="1" page="1" pageScale="1" pageWidth="827" pageHeight="1169" math="0" shadow="0">
      <root>
        <mxCell id="0" />
        <mxCell id="1" parent="0" />
        <mxCell id="7WnzvHiqUwuuy_afkAZ2-19" value="Task Scheduler" style="rounded=0;whiteSpace=wrap;html=1;fillColor=none;verticalAlign=top;" vertex="1" parent="1">
          <mxGeometry x="70" y="30" width="710" height="100" as="geometry" />
        </mxCell>
        <mxCell id="7WnzvHiqUwuuy_afkAZ2-20" style="edgeStyle=orthogonalEdgeStyle;rounded=0;orthogonalLoop=1;jettySize=auto;html=1;" edge="1" parent="1" source="7WnzvHiqUwuuy_afkAZ2-1" target="7WnzvHiqUwuuy_afkAZ2-2">
          <mxGeometry relative="1" as="geometry" />
        </mxCell>
        <mxCell id="7WnzvHiqUwuuy_afkAZ2-1" value="CGPA Calculator" style="rounded=0;whiteSpace=wrap;html=1;" vertex="1" parent="1">
          <mxGeometry x="265" y="60" width="120" height="60" as="geometry" />
        </mxCell>
        <mxCell id="7WnzvHiqUwuuy_afkAZ2-2" value="Profile" style="shape=cylinder3;whiteSpace=wrap;html=1;boundedLbl=1;backgroundOutline=1;size=15;" vertex="1" parent="1">
          <mxGeometry x="120" y="180" width="60" height="80" as="geometry" />
        </mxCell>
        <mxCell id="7WnzvHiqUwuuy_afkAZ2-6" value="Task Queue UI" style="swimlane;whiteSpace=wrap;html=1;" vertex="1" parent="1">
          <mxGeometry x="340" y="400" width="100" height="110" as="geometry" />
        </mxCell>
        <mxCell id="7WnzvHiqUwuuy_afkAZ2-22" style="edgeStyle=orthogonalEdgeStyle;rounded=0;orthogonalLoop=1;jettySize=auto;html=1;" edge="1" parent="1" source="7WnzvHiqUwuuy_afkAZ2-7" target="7WnzvHiqUwuuy_afkAZ2-12">
          <mxGeometry relative="1" as="geometry">
            <Array as="points">
              <mxPoint x="290" y="140" />
              <mxPoint x="510" y="140" />
            </Array>
          </mxGeometry>
        </mxCell>
        <mxCell id="7WnzvHiqUwuuy_afkAZ2-7" value="Tasks Aggregations" style="shape=cylinder3;whiteSpace=wrap;html=1;boundedLbl=1;backgroundOutline=1;size=15;" vertex="1" parent="1">
          <mxGeometry x="260" y="175" width="60" height="85" as="geometry" />
        </mxCell>
        <mxCell id="7WnzvHiqUwuuy_afkAZ2-24" style="edgeStyle=orthogonalEdgeStyle;rounded=0;orthogonalLoop=1;jettySize=auto;html=1;entryX=0.5;entryY=0;entryDx=0;entryDy=0;" edge="1" parent="1" source="7WnzvHiqUwuuy_afkAZ2-9" target="7WnzvHiqUwuuy_afkAZ2-15">
          <mxGeometry relative="1" as="geometry" />
        </mxCell>
        <mxCell id="7WnzvHiqUwuuy_afkAZ2-9" value="user Tasks" style="shape=cylinder3;whiteSpace=wrap;html=1;boundedLbl=1;backgroundOutline=1;size=15;" vertex="1" parent="1">
          <mxGeometry x="450" y="177.5" width="60" height="80" as="geometry" />
        </mxCell>
        <mxCell id="7WnzvHiqUwuuy_afkAZ2-23" style="edgeStyle=orthogonalEdgeStyle;rounded=0;orthogonalLoop=1;jettySize=auto;html=1;" edge="1" parent="1" source="7WnzvHiqUwuuy_afkAZ2-12" target="7WnzvHiqUwuuy_afkAZ2-9">
          <mxGeometry relative="1" as="geometry" />
        </mxCell>
        <mxCell id="7WnzvHiqUwuuy_afkAZ2-12" value="Task Creater" style="rounded=0;whiteSpace=wrap;html=1;" vertex="1" parent="1">
          <mxGeometry x="450" y="60" width="120" height="60" as="geometry" />
        </mxCell>
        <mxCell id="7WnzvHiqUwuuy_afkAZ2-17" style="edgeStyle=orthogonalEdgeStyle;rounded=0;orthogonalLoop=1;jettySize=auto;html=1;entryX=1;entryY=0.5;entryDx=0;entryDy=0;" edge="1" parent="1" source="7WnzvHiqUwuuy_afkAZ2-15" target="7WnzvHiqUwuuy_afkAZ2-6">
          <mxGeometry relative="1" as="geometry" />
        </mxCell>
        <mxCell id="7WnzvHiqUwuuy_afkAZ2-18" value="WS" style="edgeLabel;html=1;align=center;verticalAlign=middle;resizable=0;points=[];" vertex="1" connectable="0" parent="7WnzvHiqUwuuy_afkAZ2-17">
          <mxGeometry x="-0.0187" relative="1" as="geometry">
            <mxPoint as="offset" />
          </mxGeometry>
        </mxCell>
        <mxCell id="7WnzvHiqUwuuy_afkAZ2-15" value="/user/queue" style="rounded=1;whiteSpace=wrap;html=1;" vertex="1" parent="1">
          <mxGeometry x="570" y="320" width="120" height="60" as="geometry" />
        </mxCell>
        <mxCell id="7WnzvHiqUwuuy_afkAZ2-21" style="edgeStyle=orthogonalEdgeStyle;rounded=0;orthogonalLoop=1;jettySize=auto;html=1;entryX=0.367;entryY=0.933;entryDx=0;entryDy=0;entryPerimeter=0;" edge="1" parent="1" source="7WnzvHiqUwuuy_afkAZ2-7" target="7WnzvHiqUwuuy_afkAZ2-1">
          <mxGeometry relative="1" as="geometry" />
        </mxCell>
      </root>
    </mxGraphModel>
  </diagram>
</mxfile>
